<svg xmlns="http://www.w3.org/2000/svg" viewBox="0 0 512 512" role="img" aria-labelledby="title desc">
  <title id="title">Triad Engineering Loop</title>
  <desc id="desc">Three role nodes form a directional loop around verified evidence.</desc>
  <rect width="512" height="512" rx="112" fill="#0E172A"/>
  <path d="M256 102A154 154 0 0 1 408 283" fill="none" stroke="#7C8CFF" stroke-width="20" stroke-linecap="round"/>
  <path d="M256 102A154 154 0 0 1 408 283" fill="none" stroke="#35C3B1" stroke-width="20" stroke-linecap="round" transform="rotate(120 256 256)"/>
  <path d="M256 102A154 154 0 0 1 408 283" fill="none" stroke="#F5B95E" stroke-width="20" stroke-linecap="round" transform="rotate(240 256 256)"/>
  <path d="M406 293L401 269L419 273Z" fill="#7C8CFF"/>
  <path d="M406 293L401 269L419 273Z" fill="#35C3B1" transform="rotate(120 256 256)"/>
  <path d="M406 293L401 269L419 273Z" fill="#F5B95E" transform="rotate(240 256 256)"/>
  <circle cx="357" cy="171" r="37" fill="#7C8CFF"/>
  <circle cx="357" cy="171" r="37" fill="#35C3B1" transform="rotate(120 256 256)"/>
  <circle cx="357" cy="171" r="37" fill="#F5B95E" transform="rotate(240 256 256)"/>
  <circle cx="256" cy="256" r="74" fill="#16233E" stroke="#C8D2FF" stroke-width="10"/>
  <path d="M222 256l23 24 49-55" fill="none" stroke="#FFFFFF" stroke-width="20" stroke-linecap="round" stroke-linejoin="round"/>
</svg>
